<mxfile host="65bd71144e">
    <diagram name="Page-1" id="i77cLuyR8VfY6GDM6tK6">
        <mxGraphModel dx="956" dy="546" grid="1" gridSize="10" guides="1" tooltips="1" connect="1" arrows="1" fold="1" page="1" pageScale="1" pageWidth="827" pageHeight="1169" math="0" shadow="0">
            <root>
                <mxCell id="0"/>
                <mxCell id="1" parent="0"/>
                <mxCell id="2" value="" style="whiteSpace=wrap;html=1;fillColor=none;dashed=1;align=left;" parent="1" vertex="1">
                    <mxGeometry x="40" y="120" width="560" height="440" as="geometry"/>
                </mxCell>
                <mxCell id="JpXUR6jaITVe8iOcAA_K-17" value="" style="edgeStyle=orthogonalEdgeStyle;rounded=0;orthogonalLoop=1;jettySize=auto;html=1;endArrow=classicThin;endFill=1;" parent="1" source="VkSP46jUGeECV-PgP4mV-1" target="JpXUR6jaITVe8iOcAA_K-16" edge="1">
                    <mxGeometry relative="1" as="geometry"/>
                </mxCell>
                <mxCell id="JpXUR6jaITVe8iOcAA_K-19" value="1..n" style="edgeLabel;html=1;align=center;verticalAlign=middle;resizable=0;points=[];" parent="JpXUR6jaITVe8iOcAA_K-17" vertex="1" connectable="0">
                    <mxGeometry x="-0.7849" y="-1" relative="1" as="geometry">
                        <mxPoint y="-11" as="offset"/>
                    </mxGeometry>
                </mxCell>
                <mxCell id="JpXUR6jaITVe8iOcAA_K-20" value="0..n" style="edgeLabel;html=1;align=center;verticalAlign=middle;resizable=0;points=[];" parent="JpXUR6jaITVe8iOcAA_K-17" vertex="1" connectable="0">
                    <mxGeometry x="0.6283" relative="1" as="geometry">
                        <mxPoint x="4" y="-10" as="offset"/>
                    </mxGeometry>
                </mxCell>
                <mxCell id="VkSP46jUGeECV-PgP4mV-1" value="Device" style="rounded=0;whiteSpace=wrap;html=1;" parent="1" vertex="1">
                    <mxGeometry x="200" y="150" width="120" height="60" as="geometry"/>
                </mxCell>
                <mxCell id="VkSP46jUGeECV-PgP4mV-2" value="Control&lt;br&gt;&amp;lt;&amp;lt;interface&amp;gt;&amp;gt;" style="rounded=0;whiteSpace=wrap;html=1;" parent="1" vertex="1">
                    <mxGeometry x="200" y="300" width="120" height="60" as="geometry"/>
                </mxCell>
                <mxCell id="VkSP46jUGeECV-PgP4mV-3" value="" style="endArrow=classicThin;html=1;rounded=0;exitX=0.5;exitY=1;exitDx=0;exitDy=0;entryX=0.5;entryY=0;entryDx=0;entryDy=0;startArrow=none;startFill=0;endFill=1;" parent="1" source="VkSP46jUGeECV-PgP4mV-1" target="VkSP46jUGeECV-PgP4mV-2" edge="1">
                    <mxGeometry width="50" height="50" relative="1" as="geometry">
                        <mxPoint x="390" y="230" as="sourcePoint"/>
                        <mxPoint x="440" y="180" as="targetPoint"/>
                    </mxGeometry>
                </mxCell>
                <mxCell id="VkSP46jUGeECV-PgP4mV-4" value="1" style="edgeLabel;html=1;align=center;verticalAlign=middle;resizable=0;points=[];" parent="VkSP46jUGeECV-PgP4mV-3" vertex="1" connectable="0">
                    <mxGeometry x="-0.7985" relative="1" as="geometry">
                        <mxPoint x="10" as="offset"/>
                    </mxGeometry>
                </mxCell>
                <mxCell id="VkSP46jUGeECV-PgP4mV-5" value="1..n" style="edgeLabel;html=1;align=center;verticalAlign=middle;resizable=0;points=[];" parent="VkSP46jUGeECV-PgP4mV-3" vertex="1" connectable="0">
                    <mxGeometry x="0.8132" y="-1" relative="1" as="geometry">
                        <mxPoint x="11" y="-8" as="offset"/>
                    </mxGeometry>
                </mxCell>
                <mxCell id="VkSP46jUGeECV-PgP4mV-6" value="Has" style="edgeLabel;html=1;align=center;verticalAlign=middle;resizable=0;points=[];" parent="VkSP46jUGeECV-PgP4mV-3" vertex="1" connectable="0">
                    <mxGeometry x="-0.1245" y="1" relative="1" as="geometry">
                        <mxPoint as="offset"/>
                    </mxGeometry>
                </mxCell>
                <mxCell id="JpXUR6jaITVe8iOcAA_K-2" value="" style="edgeStyle=orthogonalEdgeStyle;rounded=0;orthogonalLoop=1;jettySize=auto;html=1;exitX=0.5;exitY=0;exitDx=0;exitDy=0;endArrow=classicThin;endFill=1;" parent="1" source="JpXUR6jaITVe8iOcAA_K-1" target="VkSP46jUGeECV-PgP4mV-2" edge="1">
                    <mxGeometry relative="1" as="geometry"/>
                </mxCell>
                <mxCell id="JpXUR6jaITVe8iOcAA_K-1" value="Switch" style="rounded=0;whiteSpace=wrap;html=1;" parent="1" vertex="1">
                    <mxGeometry x="60" y="450" width="120" height="60" as="geometry"/>
                </mxCell>
                <mxCell id="JpXUR6jaITVe8iOcAA_K-4" value="" style="edgeStyle=orthogonalEdgeStyle;rounded=0;orthogonalLoop=1;jettySize=auto;html=1;endArrow=none;endFill=0;" parent="1" source="JpXUR6jaITVe8iOcAA_K-3" target="VkSP46jUGeECV-PgP4mV-2" edge="1">
                    <mxGeometry relative="1" as="geometry"/>
                </mxCell>
                <mxCell id="JpXUR6jaITVe8iOcAA_K-3" value="Level" style="rounded=0;whiteSpace=wrap;html=1;" parent="1" vertex="1">
                    <mxGeometry x="200" y="450" width="120" height="60" as="geometry"/>
                </mxCell>
                <mxCell id="JpXUR6jaITVe8iOcAA_K-6" value="" style="edgeStyle=orthogonalEdgeStyle;rounded=0;orthogonalLoop=1;jettySize=auto;html=1;exitX=0.5;exitY=0;exitDx=0;exitDy=0;endArrow=none;endFill=0;" parent="1" source="JpXUR6jaITVe8iOcAA_K-5" target="VkSP46jUGeECV-PgP4mV-2" edge="1">
                    <mxGeometry relative="1" as="geometry"/>
                </mxCell>
                <mxCell id="JpXUR6jaITVe8iOcAA_K-5" value="Colour" style="rounded=0;whiteSpace=wrap;html=1;" parent="1" vertex="1">
                    <mxGeometry x="340" y="450" width="120" height="60" as="geometry"/>
                </mxCell>
                <mxCell id="JpXUR6jaITVe8iOcAA_K-15" value="&lt;font style=&quot;font-size: 10px;&quot;&gt;Controls expose some piece of functionality for a device, we're not attempting make them generic in any way. A user interacts directly with the controls, while device handles things like pairing &amp;amp; connection status&lt;/font&gt;" style="shape=note;whiteSpace=wrap;html=1;backgroundOutline=1;fontColor=#000000;darkOpacity=0.05;fillColor=#FFF9B2;strokeColor=none;fillStyle=solid;direction=west;gradientDirection=north;gradientColor=#FFF2A1;shadow=1;size=20;pointerEvents=1;" parent="1" vertex="1">
                    <mxGeometry x="60" y="265" width="140" height="130" as="geometry"/>
                </mxCell>
                <mxCell id="JpXUR6jaITVe8iOcAA_K-16" value="Device Category" style="rounded=0;whiteSpace=wrap;html=1;" parent="1" vertex="1">
                    <mxGeometry x="413" y="150" width="120" height="60" as="geometry"/>
                </mxCell>
                <mxCell id="JpXUR6jaITVe8iOcAA_K-21" value="Categories are how we define devices in a way that users care about. A category defines control requirements on a device, then allows users to view or act on them as a group, e.g. a L" style="shape=note;whiteSpace=wrap;html=1;backgroundOutline=1;fontColor=#000000;darkOpacity=0.05;fillColor=#FFF9B2;strokeColor=none;fillStyle=solid;direction=west;gradientDirection=north;gradientColor=#FFF2A1;shadow=1;size=20;pointerEvents=1;fontSize=10;" parent="1" vertex="1">
                    <mxGeometry x="390" y="210" width="180" height="90" as="geometry"/>
                </mxCell>
                <mxCell id="3" value="&lt;b&gt;&amp;nbsp;Core Context&lt;/b&gt;" style="whiteSpace=wrap;html=1;fillColor=none;dashed=1;align=left;" vertex="1" parent="1">
                    <mxGeometry x="40" y="120" width="90" height="30" as="geometry"/>
                </mxCell>
                <mxCell id="4" value="Future contexts will exist downstream to this main one. Devices with more complex behaviour than we can reasonably model here will delegate to these down stream contexts. E.g. a user may register a camera &amp;amp; delegate to another context for video streaming" style="shape=note;whiteSpace=wrap;html=1;backgroundOutline=1;fontColor=#000000;darkOpacity=0.05;fillColor=#FFF9B2;strokeColor=none;fillStyle=solid;direction=west;gradientDirection=north;gradientColor=#FFF2A1;shadow=1;size=20;pointerEvents=1;dashed=1;" vertex="1" parent="1">
                    <mxGeometry x="600" y="120" width="140" height="200" as="geometry"/>
                </mxCell>
            </root>
        </mxGraphModel>
    </diagram>
</mxfile>